<svg width="128" height="128" viewBox="0 0 128 128" fill="none" xmlns="http://www.w3.org/2000/svg">
  <defs>
    <linearGradient id="g" x1="20" y1="10" x2="108" y2="118" gradientUnits="userSpaceOnUse">
      <stop stop-color="#10D87E"/><stop offset="1" stop-color="#0E904B"/>
    </linearGradient>
    <linearGradient id="gl" x1="64" y1="8" x2="64" y2="74" gradientUnits="userSpaceOnUse">
      <stop stop-color="#ffffff" stop-opacity="0.28"/><stop offset="1" stop-color="#ffffff" stop-opacity="0"/>
    </linearGradient>
  </defs>
  <rect x="8" y="8" width="112" height="112" rx="30" fill="url(#g)"/><rect x="8" y="8" width="112" height="112" rx="30" fill="url(#gl)"/>
  
  <path d="M36 36 h56 a9 9 0 0 1 9 9 v26 a9 9 0 0 1 -9 9 H58 l-15 15 v-15 H36 a9 9 0 0 1 -9 -9 V45 a9 9 0 0 1 9 -9 Z" fill="#ffffff"/>
  <g fill="#0E9A52"><circle cx="48" cy="58" r="4.5"/><circle cx="64" cy="58" r="4.5"/><circle cx="80" cy="58" r="4.5"/></g>
</svg>
