<svg width="128" height="128" viewBox="0 0 128 128" fill="none" xmlns="http://www.w3.org/2000/svg">
  <defs>
    <linearGradient id="g" x1="20" y1="10" x2="108" y2="118" gradientUnits="userSpaceOnUse">
      <stop stop-color="#10D87E"/><stop offset="1" stop-color="#0E904B"/>
    </linearGradient>
    <linearGradient id="gl" x1="64" y1="8" x2="64" y2="74" gradientUnits="userSpaceOnUse">
      <stop stop-color="#ffffff" stop-opacity="0.28"/><stop offset="1" stop-color="#ffffff" stop-opacity="0"/>
    </linearGradient>
  </defs>
  <rect x="8" y="8" width="112" height="112" rx="30" fill="url(#g)"/><rect x="8" y="8" width="112" height="112" rx="30" fill="url(#gl)"/>
  
  <path d="M44 26 h26 l18 18 v54 a5 5 0 0 1 -5 5 H44 a5 5 0 0 1 -5 -5 V31 a5 5 0 0 1 5 -5 Z" fill="#ffffff"/>
  <path d="M70 26 v18 h18" fill="none" stroke="#0E9A52" stroke-width="4.5" stroke-linejoin="round"/>
  <g stroke="#0E9A52" stroke-width="5.5" stroke-linecap="round"><path d="M52 60 h24"/><path d="M52 72 h24"/><path d="M52 84 h15"/></g>
</svg>
